<?xml version="1.0" encoding="UTF-8"?><svg id="_레이어_2" xmlns="http://www.w3.org/2000/svg" viewBox="0 0 280.52 73.99"><defs><style>.cls-1{fill:#fff;}.cls-2{fill:#00c4f2;}</style></defs><g id="_레이어_1-2"><g><g><path class="cls-1" d="M54.74,57.47h-7.28V10.92l-15.54,46.48h-9.1L7.28,10.92V57.47H0V2.31H11.48l15.89,47.88L43.26,2.31h11.48V57.47Z"/><path class="cls-1" d="M94.11,51.17c0,1.91-.6,3.46-1.79,4.66-1.19,1.19-2.74,1.78-4.65,1.78h-21.49c-1.91,0-3.46-.59-4.65-1.78s-1.79-2.74-1.79-4.66V27.3c0-1.91,.59-3.46,1.79-4.65,1.19-1.19,2.74-1.79,4.65-1.79h21.49c1.91,0,3.46,.6,4.65,1.79s1.79,2.74,1.79,4.65v23.87Zm-8.26,.14c.75,0,1.12-.37,1.12-1.12V28.28c0-.75-.37-1.12-1.12-1.12h-17.85c-.75,0-1.12,.37-1.12,1.12v21.91c0,.75,.37,1.12,1.12,1.12h17.85Z"/><path class="cls-1" d="M133.48,51.17c0,1.91-.59,3.46-1.79,4.66-1.19,1.19-2.74,1.78-4.65,1.78h-27.93V0h7.14V20.86h20.79c1.91,0,3.46,.6,4.65,1.79,1.19,1.19,1.79,2.74,1.79,4.65v23.87Zm-8.26,.14c.75,0,1.12-.37,1.12-1.12V28.28c0-.75-.37-1.12-1.12-1.12h-18.97v24.15h18.97Z"/><path class="cls-1" d="M151.11,73.99h-8.05l8.61-17.78-15.19-35.35h8.05l10.92,27.23,11.62-27.23h8.05l-24.01,53.13Z"/></g><g><path class="cls-2" d="M227.39,57.66h-38.85c-3.03,0-5.5-.95-7.38-2.83-1.89-1.89-2.83-4.35-2.83-7.39V11.67c0-3.03,.95-5.5,2.83-7.38,1.89-1.89,4.35-2.83,7.38-2.83h38.85V14.05h-35.07v8.96h33.95v11.55h-33.95v10.5h35.07v12.6Z"/><path class="cls-2" d="M280.52,70.3h-16.45l-12.39-23.03c-.65-1.21-1.25-2.32-1.79-3.32-.54-1-1.06-2-1.58-2.98-.51-.98-1.04-1.96-1.58-2.94-.54-.98-1.11-2.08-1.71-3.29v35.56h-15.26V14.09h16.45l15.61,28.63c.89,1.54,1.67,2.92,2.34,4.13,.68,1.21,1.46,2.64,2.35,4.27V14.09h14v56.21Z"/></g></g></g></svg>